<svg width="28" height="26" viewBox="0 0 28 26" fill="none" xmlns="http://www.w3.org/2000/svg">
<g clip-path="url(#clip0_42_42)">
<path d="M12.2019 25.9746L9.53312 25.0758C9.25312 24.9844 9.09562 24.6441 9.17437 24.3191L15.1462 0.441801C15.225 0.116801 15.5181 -0.0660113 15.7981 0.025395L18.4669 0.924223C18.7469 1.01563 18.9044 1.35586 18.8256 1.68086L12.8537 25.5582C12.7706 25.8832 12.4819 26.0711 12.2019 25.9746ZM7.21437 20.277L9.1175 17.9207C9.31875 17.6719 9.30562 17.2758 9.0825 17.0473L5.11875 13L9.0825 8.95274C9.30562 8.72422 9.32312 8.32813 9.1175 8.0793L7.21437 5.72305C7.0175 5.4793 6.685 5.46407 6.47062 5.69766L0.166245 12.5531C-0.0568799 12.7918 -0.0568799 13.2031 0.166245 13.4418L6.47062 20.3023C6.685 20.5359 7.0175 20.5258 7.21437 20.277ZM21.5294 20.3074L27.8337 13.4469C28.0569 13.2082 28.0569 12.7969 27.8337 12.5582L21.5294 5.69258C21.3194 5.46407 20.9869 5.47422 20.7856 5.71797L18.8825 8.07422C18.6812 8.32305 18.6944 8.71914 18.9175 8.94766L22.8812 13L18.9175 17.0473C18.6944 17.2758 18.6769 17.6719 18.8825 17.9207L20.7856 20.277C20.9825 20.5258 21.315 20.5359 21.5294 20.3074Z" fill="#24409C"/>
</g>
<defs>
<clipPath id="clip0_42_42">
<rect width="28" height="26" fill="white"/>
</clipPath>
</defs>
</svg>
