<svg width="30" height="30" viewBox="0 0 30 30" fill="none" xmlns="http://www.w3.org/2000/svg">
<g clip-path="url(#clip0_40_40)">
<path fill-rule="evenodd" clip-rule="evenodd" d="M10.8193 0.591613C7.92002 1.43617 5.34261 3.13494 3.42331 5.46631C1.50401 7.79768 0.331934 10.6534 0.0599976 13.6609H6.91714C7.31685 9.08429 8.64378 4.6369 10.8171 0.58947L10.8193 0.591613ZM6.91714 16.3395H0.0599976C0.331368 19.3471 1.50294 22.2031 3.42186 24.5348C5.34079 26.8666 7.91796 28.5658 10.8171 29.4109C8.64378 25.3635 7.31685 20.9161 6.91714 16.3395ZM14.2543 29.983C11.6562 25.8626 10.0634 21.189 9.60428 16.3395H20.3936C19.9345 21.189 18.3416 25.8626 15.7436 29.983C15.2474 30.0077 14.7504 30.0077 14.2543 29.983ZM19.1829 29.4088C22.0817 28.5638 24.6587 26.8649 26.5776 24.5336C28.4965 22.2022 29.6682 19.3467 29.94 16.3395H23.0829C22.6831 20.9161 21.3562 25.3635 19.1829 29.4109V29.4088ZM23.0829 13.6609H29.94C29.6686 10.6533 28.4971 7.7973 26.5781 5.46554C24.6592 3.13378 22.082 1.43452 19.1829 0.58947C21.3562 4.6369 22.6831 9.08429 23.0829 13.6609ZM14.2543 0.0173271C14.7511 -0.0074033 15.2489 -0.0074033 15.7457 0.0173271C18.343 4.13801 19.9351 8.8116 20.3936 13.6609H9.60643C10.0714 8.78161 11.6679 4.10376 14.2543 0.0173271Z" fill="#3191FF"/>
</g>
<defs>
<clipPath id="clip0_40_40">
<rect width="30" height="30" fill="white"/>
</clipPath>
</defs>
</svg>
