<svg width="38" height="38" viewBox="0 0 38 38" fill="none" xmlns="http://www.w3.org/2000/svg">
<rect width="38" height="38" rx="4" fill="rgba(33,33,33,0.300)" fill-opacity="0.75"/>
<path fill-rule="evenodd" clip-rule="evenodd" d="M16.074 9.32031L15.3906 9.40256C15.3906 9.40256 12.3246 9.73769 10.0855 11.5358H10.0593L10.0312 11.5621C9.529 12.0241 9.31025 12.5919 8.96463 13.4223C8.5572 14.4214 8.21037 15.444 7.926 16.4848C7.27675 18.8324 6.75 21.6762 6.75 24.2776V24.4963L6.85938 24.7151C7.66962 26.1369 9.10812 27.0426 10.4416 27.6682C11.7742 28.2938 12.9266 28.6254 13.7229 28.6526L14.2426 28.6797L14.5156 28.2151L15.4729 26.5193C16.4879 26.7486 17.6569 26.9026 19 26.9026C20.3431 26.9026 21.5121 26.7486 22.5271 26.5193L23.4844 28.2151L23.7582 28.6797L24.2771 28.6526C25.0734 28.6254 26.2258 28.2938 27.5584 27.6682C28.8919 27.0426 30.3304 26.1369 31.1406 24.7151L31.25 24.4963V24.2776C31.25 21.6762 30.7233 18.8324 30.074 16.4848C29.7896 15.444 29.4428 14.4214 29.0354 13.4223C28.6897 12.5911 28.471 12.0241 27.9688 11.5629L27.9416 11.5349H27.9136C25.6763 9.73769 22.6094 9.40256 22.6094 9.40256L21.926 9.32031L21.6793 9.94944C21.6793 9.94944 21.4264 10.5882 21.2697 11.3171C20.5175 11.2133 19.7593 11.1583 19 11.1526C18.5319 11.1526 17.7225 11.1832 16.7303 11.3171C16.5728 10.5882 16.3199 9.94944 16.3199 9.94944L16.074 9.32031ZM14.8709 11.3171C14.9085 11.4396 14.9461 11.5454 14.9803 11.6452C13.8489 11.9252 12.6422 12.3522 11.5354 13.0391L12.4646 14.5161C14.7344 13.1073 17.9946 12.9026 19 12.9026C20.0045 12.9026 23.2656 13.1073 25.5354 14.5161L26.4646 13.0391C25.3578 12.3522 24.1511 11.9252 23.0197 11.6443C23.0539 11.5454 23.0915 11.4396 23.1291 11.3162C23.9455 11.4807 25.5048 11.8569 26.7928 12.8754C26.7858 12.8789 27.1209 13.3847 27.4219 14.1057C27.7299 14.8477 28.0711 15.8356 28.3791 16.9494C28.9706 19.0853 29.4352 21.6867 29.4729 23.9766C28.9216 24.8174 27.9005 25.5761 26.8199 26.0827C26.1422 26.4029 25.4252 26.6324 24.6875 26.7652L24.25 26.0276C24.5099 25.9313 24.7662 25.8263 24.9885 25.7266C26.3351 25.1351 27.0666 24.4963 27.0666 24.4963L25.9178 23.1838C25.9178 23.1838 25.426 23.6353 24.2771 24.1411C23.13 24.6468 21.3756 25.1526 19 25.1526C16.6244 25.1526 14.8709 24.6468 13.7229 24.1411C12.574 23.6353 12.0822 23.1838 12.0822 23.1838L10.9334 24.4963C10.9334 24.4963 11.6649 25.1351 13.0115 25.7266C13.2542 25.8353 13.5005 25.9357 13.75 26.0276L13.3125 26.7661C12.5744 26.6328 11.8571 26.4027 11.1792 26.0818C10.0995 25.5761 9.0775 24.8174 8.528 23.9766C8.56475 21.6867 9.02938 19.0853 9.62175 16.9494C9.88349 15.9833 10.2029 15.0337 10.5781 14.1057C10.8791 13.3847 11.2142 12.8789 11.2072 12.8754C12.4952 11.8569 14.0545 11.4807 14.8709 11.3171ZM15.9375 17.2776C15.2611 17.2776 14.6626 17.6634 14.2969 18.1526C13.9311 18.6417 13.75 19.2428 13.75 19.9026C13.75 20.5623 13.9311 21.1634 14.2969 21.6526C14.6626 22.1417 15.2611 22.5276 15.9375 22.5276C16.6139 22.5276 17.2124 22.1417 17.5781 21.6526C17.9439 21.1634 18.125 20.5623 18.125 19.9026C18.125 19.2428 17.9439 18.6417 17.5781 18.1526C17.2124 17.6634 16.6139 17.2776 15.9375 17.2776ZM22.0625 17.2776C21.3861 17.2776 20.7876 17.6634 20.4219 18.1526C20.0561 18.6417 19.875 19.2428 19.875 19.9026C19.875 20.5623 20.0561 21.1634 20.4219 21.6526C20.7876 22.1417 21.3861 22.5276 22.0625 22.5276C22.7389 22.5276 23.3374 22.1417 23.7031 21.6526C24.0689 21.1634 24.25 20.5623 24.25 19.9026C24.25 19.2428 24.0689 18.6417 23.7031 18.1526C23.3374 17.6634 22.7389 17.2776 22.0625 17.2776ZM15.9375 19.0276C15.9856 19.0276 16.0469 19.0451 16.1562 19.1921C16.2656 19.3382 16.375 19.5946 16.375 19.9026C16.375 20.2106 16.2656 20.4669 16.1562 20.6139C16.0469 20.7601 15.9856 20.7776 15.9375 20.7776C15.8894 20.7776 15.8281 20.7601 15.7188 20.6131C15.574 20.4046 15.4976 20.1563 15.5 19.9026C15.5 19.5946 15.6094 19.3382 15.7188 19.1912C15.8281 19.0451 15.8894 19.0276 15.9375 19.0276ZM22.0625 19.0276C22.1106 19.0276 22.1719 19.0451 22.2812 19.1921C22.3906 19.3382 22.5 19.5946 22.5 19.9026C22.5 20.2106 22.3906 20.4669 22.2812 20.6139C22.1719 20.7601 22.1106 20.7776 22.0625 20.7776C22.0144 20.7776 21.9531 20.7601 21.8438 20.6131C21.699 20.4046 21.6226 20.1563 21.625 19.9026C21.625 19.5946 21.7344 19.3382 21.8438 19.1912C21.9531 19.0451 22.0144 19.0276 22.0625 19.0276Z" fill="white"/>
</svg>
