<svg width="38" height="38" viewBox="0 0 38 38" fill="none" xmlns="http://www.w3.org/2000/svg">
<rect width="38" height="38" rx="4" fill="rgba(33,33,33,0.300)" fill-opacity="0.75"/>
<path d="M22 28C22 28 22 25.73 22 25C22 24.37 22.15 23.04 21.5 22.5C22.89 22.37 23.98 21.92 25 21C26.02 20.08 26.5 18.69 26.5 16.5C26.5 15 26.25 14 25.5 13C25.79 12.22 25.84 11 25.5 10C23.94 10 22.53 11.07 22 11.5C21.61 11.4 20.67 11 19 11C17.33 11 16.39 11.4 16 11.5C15.47 11.07 14.06 10 12.5 10C12.16 11 12.21 12.22 12.5 13C11.75 14 11.5 15 11.5 16.5C11.5 18.69 11.98 20.08 13 21C14.02 21.92 15.11 22.37 16.5 22.5C15.85 23.04 16 24.37 16 25C16 25.73 16 28 16 28" stroke="white" stroke-width="2" stroke-linecap="round" stroke-linejoin="round"/>
<path d="M16 26C14.594 26 13.156 25.437 12.312 24.812C11.47 24.188 11.22 23.157 10 22.5" stroke="white" stroke-width="2" stroke-linecap="round" stroke-linejoin="round"/>
</svg>
