<svg width="38" height="38" viewBox="0 0 38 38" fill="none" xmlns="http://www.w3.org/2000/svg">
<rect width="38" height="38" rx="4" fill="rgba(33,33,33,0.300)" fill-opacity="0.75"/>
<path d="M25.73 12.41L24.45 13.41L19 17.46L13.55 13.37L12.27 12.37C11.9685 12.1205 11.6004 11.965 11.2113 11.9228C10.8222 11.8805 10.4293 11.9532 10.0812 12.1321C9.73312 12.3109 9.44514 12.588 9.25295 12.9289C9.06077 13.2698 8.97282 13.6596 9.00001 14.05V25.64C9.00001 26.0007 9.1433 26.3466 9.39835 26.6017C9.6534 26.8567 9.99932 27 10.36 27H13.55V19.28L19 23.37L24.45 19.28V27H27.64C28.0007 27 28.3466 26.8567 28.6017 26.6017C28.8567 26.3466 29 26.0007 29 25.64V14.05C29.0188 13.663 28.9247 13.2788 28.7293 12.9442C28.5338 12.6096 28.2453 12.3391 27.899 12.1653C27.5526 11.9916 27.1632 11.9223 26.7782 11.9657C26.3931 12.0091 26.029 12.1635 25.73 12.41Z" fill="white"/>
</svg>
